<svg width="25" height="28" viewBox="0 0 25 28" fill="none" xmlns="http://www.w3.org/2000/svg">
<path d="M5.66846 2L2.06885 6.8V23.6C2.06885 24.2365 2.32168 24.847 2.77171 25.2971C3.22175 25.7471 3.83214 26 4.46859 26H21.2668C21.9032 26 22.5136 25.7471 22.9636 25.2971C23.4137 24.847 23.6665 24.2365 23.6665 23.6V6.8L20.0669 2H5.66846Z" stroke="#1E1E1E" stroke-width="2.39987" stroke-linecap="round" stroke-linejoin="round"/>
<path d="M2.06885 6.80005H23.6665" stroke="#1E1E1E" stroke-width="2.39987" stroke-linecap="round" stroke-linejoin="round"/>
<path d="M17.6672 11.6C17.6672 12.873 17.1615 14.0939 16.2615 14.9941C15.3614 15.8943 14.1406 16.4 12.8677 16.4C11.5948 16.4 10.374 15.8943 9.47397 14.9941C8.5739 14.0939 8.06824 12.873 8.06824 11.6" stroke="#1E1E1E" stroke-width="2.39987" stroke-linecap="round" stroke-linejoin="round"/>
</svg>
